<svg xmlns="http://www.w3.org/2000/svg" width="32" height="30" viewBox="0 0 32 30">
  <defs>
    <style>
      .cls-1 {
        fill: #282828;
        fill-rule: evenodd;
      }
    </style>
  </defs>
  <path class="cls-1" d="M65.564,685.207a5.59,5.59,0,0,0-11.129,0H45.682V707H74.318v-21.8H65.564ZM58.18,690.93a5.533,5.533,0,0,0,3.641,0v3.519l-1.82-.71-1.82.71V690.93ZM60,682.285a3.407,3.407,0,1,1-3.434,3.407A3.424,3.424,0,0,1,60,682.285Zm12.163,22.579H47.838V687.346h6.827a5.541,5.541,0,0,0,1.359,2.238v8L60,696.038l3.976,1.55v-8a5.544,5.544,0,0,0,1.359-2.238h6.827v17.518Zm-19.708-2.5h15.09V700.23H52.455v2.139Z" transform="translate(-44 -678.578)"/>
</svg>
