<svg xmlns="http://www.w3.org/2000/svg" width="31" height="32" viewBox="0 0 31 32">
  <defs>
    <style>
      .cls-1 {
        fill: #282828;
        fill-rule: evenodd;
      }
    </style>
  </defs>
  <path class="cls-1" d="M58.044,165.709a1.328,1.328,0,1,0-1.352-1.328A1.34,1.34,0,0,0,58.044,165.709Zm4.846,0a1.328,1.328,0,1,0-1.352-1.328A1.34,1.34,0,0,0,62.89,165.709Zm4.845,0a1.328,1.328,0,1,0-1.352-1.328A1.34,1.34,0,0,0,67.735,165.709ZM50.618,156v9.961H45.682v14.234h2.807v6.019l6.131-6.019H66.145v-5.725l5.581,5.479v-7.02H75.16V156H50.618ZM53.7,178.012l-2.992,2.938v-2.938H47.9v-9.877h2.718v4.79H63.926v5.087H53.7Zm19.241-7.265H69.507v3.938L65.5,170.747H52.838V158.175h20.1v12.572Z" transform="translate(-44.922 -155.109)"/>
</svg>
