<svg xmlns="http://www.w3.org/2000/svg" width="32" height="32" viewBox="0 0 32 32">
  <defs>
    <style>
      .cls-1 {
        fill: #282828;
        fill-rule: evenodd;
      }
    </style>
  </defs>
  <path class="cls-1" d="M66.236,431.459a5.961,5.961,0,0,0-4.265,1.785,6.141,6.141,0,0,0,0,8.62,5.959,5.959,0,0,0,4.264,1.785h0a5.941,5.941,0,0,0,3.47-1.114l3,3.029,1.459-1.474-3-3.029a6.066,6.066,0,0,0-1.33-8.39v-3.688l-9.728-9.83H46.364v27.694H69.835v-2.085H48.427V421.238H58.648v9.219h9.124v1.208A6.007,6.007,0,0,0,66.236,431.459Zm-5.525-8.747,5.6,5.66h-5.6v-5.66Zm8.331,17.678a3.939,3.939,0,0,1-5.613,0,4.04,4.04,0,0,1,0-5.671,3.94,3.94,0,0,1,5.613,0A4.041,4.041,0,0,1,69.042,440.39Z" transform="translate(-44.266 -417)"/>
</svg>
